<svg id="visual" viewBox="0 0 960 540" width="960" height="540" xmlns="http://www.w3.org/2000/svg" xmlns:xlink="http://www.w3.org/1999/xlink" version="1.1"><path d="M0 93L87 50L175 93L262 55L349 77L436 33L524 71L611 39L698 66L785 71L873 93L960 93L960 0L873 0L785 0L698 0L611 0L524 0L436 0L349 0L262 0L175 0L87 0L0 0Z" fill="#00cc8e"></path><path d="M0 217L87 168L175 163L262 244L349 271L436 249L524 190L611 179L698 255L785 179L873 185L960 168L960 91L873 91L785 69L698 64L611 37L524 69L436 31L349 75L262 53L175 91L87 48L0 91Z" fill="#00b98a"></path><path d="M0 374L87 390L175 363L262 357L349 357L436 438L524 395L611 384L698 401L785 347L873 422L960 390L960 166L873 183L785 177L698 253L611 177L524 188L436 247L349 269L262 242L175 161L87 166L0 215Z" fill="#00a784"></path><path d="M0 471L87 487L175 449L262 465L349 465L436 482L524 487L611 444L698 476L785 411L873 482L960 482L960 388L873 420L785 345L698 399L611 382L524 393L436 436L349 355L262 355L175 361L87 388L0 372Z" fill="#00957c"></path><path d="M0 541L87 541L175 541L262 541L349 541L436 541L524 541L611 541L698 541L785 541L873 541L960 541L960 480L873 480L785 409L698 474L611 442L524 485L436 480L349 463L262 463L175 447L87 485L0 469Z" fill="#038373"></path></svg>