<?xml version="1.0" standalone="no"?>
<!DOCTYPE svg PUBLIC "-//W3C//DTD SVG 20010904//EN"
 "http://www.w3.org/TR/2001/REC-SVG-20010904/DTD/svg10.dtd">
<svg version="1.0" xmlns="http://www.w3.org/2000/svg"
 width="512.000000pt" height="512.000000pt" viewBox="0 0 512.000000 512.000000"
 preserveAspectRatio="xMidYMid meet">
<metadata>
Created by potrace 1.16, written by Peter Selinger 2001-2019
</metadata>
<g transform="translate(0.000000,512.000000) scale(0.100000,-0.100000)"
fill="#863ED5" stroke="none">
<path d="M2395 5101 c-206 -60 -366 -224 -419 -428 -14 -53 -16 -160 -16 -787
l0 -726 -726 0 c-627 0 -734 -2 -787 -16 -208 -54 -377 -223 -431 -431 -21
-78 -21 -228 0 -306 53 -206 225 -378 430 -431 54 -14 158 -16 788 -16 l726 0
0 -726 c0 -806 -2 -781 67 -918 69 -137 224 -260 379 -300 79 -20 228 -21 307
0 208 54 377 223 431 431 14 53 16 160 16 787 l0 726 726 0 c627 0 734 2 787
16 208 54 377 223 431 431 21 78 21 228 0 306 -54 208 -223 377 -431 431 -53
14 -160 16 -787 16 l-726 0 0 726 c0 627 -2 734 -16 787 -54 208 -223 377
-431 431 -82 21 -240 20 -318 -3z m269 -307 c55 -19 133 -91 159 -147 10 -20
22 -63 27 -95 6 -32 10 -395 10 -827 0 -732 1 -771 19 -798 43 -66 -17 -61
881 -67 924 -6 869 -1 958 -89 70 -68 87 -109 87 -211 0 -99 -17 -142 -80
-205 -49 -49 -97 -73 -173 -85 -32 -6 -395 -10 -827 -10 -737 0 -771 -1 -799
-19 -15 -10 -37 -32 -47 -47 -18 -28 -19 -62 -19 -799 0 -432 -4 -795 -10
-827 -12 -76 -36 -124 -85 -173 -63 -63 -106 -80 -205 -80 -99 0 -142 17 -205
80 -49 49 -73 97 -85 173 -6 32 -10 395 -10 827 0 737 -1 771 -19 799 -10 15
-32 37 -47 47 -28 18 -62 19 -799 19 -432 0 -795 4 -827 10 -76 12 -124 36
-173 85 -55 54 -78 107 -83 187 -10 161 90 281 255 308 33 6 390 10 828 10
732 0 771 1 798 19 66 43 61 -17 67 881 6 909 2 862 77 949 77 91 209 125 327
85z"/>
</g>
</svg>
